<svg width="32" height="32" viewBox="0 0 32 32" fill="none" xmlns="http://www.w3.org/2000/svg">
  <defs>
    <linearGradient id="bg" x1="0" y1="0" x2="0" y2="32">
      <stop offset="0" stop-color="#15181c"/>
      <stop offset="1" stop-color="#0A0B0D"/>
    </linearGradient>
    <linearGradient id="spade-steel" x1="16" y1="4" x2="16" y2="28">
      <stop offset="0" stop-color="#3a414b"/>
      <stop offset="0.5" stop-color="#23272d"/>
      <stop offset="1" stop-color="#15181c"/>
    </linearGradient>
  </defs>
  <rect x="0" y="0" width="32" height="32" rx="7" fill="url(#bg)"/>
  <rect x="0.5" y="0.5" width="31" height="31" rx="6.5" fill="none" stroke="#343B44" stroke-width="1"/>
  <g transform="translate(2.4 2.4) scale(0.85)">
    <path d="M16 2.5C12 8.5 4.5 13 4.5 19.2c0 3.6 2.8 6.3 6.2 6.3 2 0 3.7-.9 4.8-2.3-.4 2.5-1.4 4.4-3 5.8h7c-1.6-1.4-2.6-3.3-3-5.8 1.1 1.4 2.8 2.3 4.8 2.3 3.4 0 6.2-2.7 6.2-6.3C27.5 13 20 8.5 16 2.5Z" fill="url(#spade-steel)" stroke="#454c56" stroke-width="1"/>
    <path d="M16 6.8c-3 4.3-8 7.9-8 12.4 0 2.4 1.8 4.2 4.1 4.2 1.9 0 3.3-1.1 3.9-2.8.6 1.7 2 2.8 3.9 2.8 2.3 0 4.1-1.8 4.1-4.2 0-4.5-5-8.1-8-12.4Z" fill="none" stroke="#FF2D40" stroke-width="1.4" opacity="0.95"/>
  </g>
</svg>
